<svg width="1920" height="4066" viewBox="0 0 1920 4066" fill="none" xmlns="http://www.w3.org/2000/svg">
<g clip-path="url(#clip0)">
<rect width="1920" height="4066" fill="white"/>
<path d="M297.208 1482.74L297.208 2032.09L-178.543 1757.41L297.208 1482.74Z" stroke="#EBEBEB"/>
<circle cx="296.896" cy="2031.88" r="5" transform="rotate(-30 296.896 2031.88)" fill="#F2F2F2"/>
<circle cx="297.053" cy="1482.15" r="5" transform="rotate(-30 297.053 1482.15)" fill="#F2F2F2"/>
<path d="M425.594 924.381L425.594 1180.78L203.549 1052.58L425.594 924.381Z" stroke="#EBEBEB"/>
<path d="M1668.56 1596.78L1668.56 1340.38L1890.61 1468.58L1668.56 1596.78Z" stroke="#EBEBEB"/>
<path d="M1312.62 1459.62L836.874 1734.3L836.874 1184.95L1312.62 1459.62Z" stroke="#EBEBEB"/>
<circle cx="836.739" cy="1184.2" r="5" transform="rotate(30 836.739 1184.2)" fill="#F2F2F2"/>
<circle cx="836.896" cy="1733.93" r="5" transform="rotate(30 836.896 1733.93)" fill="#F2F2F2"/>
<circle cx="1313.05" cy="1459.2" r="5" transform="rotate(30 1313.05 1459.2)" fill="#F2F2F2"/>
<path d="M388.939 2260.53C388.939 2259.25 388.594 2258.28 387.902 2257.6C387.211 2256.92 385.963 2256.25 384.158 2255.61C382.354 2254.96 380.971 2254.29 380.01 2253.59C379.061 2252.87 378.346 2252.06 377.865 2251.16C377.396 2250.25 377.162 2249.21 377.162 2248.03C377.162 2246.01 377.836 2244.34 379.184 2243.02C380.543 2241.71 382.318 2241.05 384.51 2241.05C386.01 2241.05 387.346 2241.39 388.518 2242.07C389.689 2242.74 390.592 2243.67 391.225 2244.87C391.857 2246.06 392.174 2247.38 392.174 2248.81H388.939C388.939 2247.22 388.559 2246 387.797 2245.13C387.035 2244.27 385.939 2243.83 384.51 2243.83C383.209 2243.83 382.201 2244.2 381.486 2244.92C380.771 2245.65 380.414 2246.67 380.414 2247.98C380.414 2249.06 380.801 2249.96 381.574 2250.69C382.348 2251.41 383.543 2252.06 385.16 2252.64C387.68 2253.47 389.479 2254.5 390.557 2255.71C391.646 2256.93 392.191 2258.53 392.191 2260.5C392.191 2262.57 391.518 2264.23 390.17 2265.49C388.822 2266.73 386.988 2267.35 384.668 2267.35C383.18 2267.35 381.803 2267.03 380.537 2266.38C379.283 2265.73 378.293 2264.81 377.566 2263.64C376.852 2262.46 376.494 2261.11 376.494 2259.58H379.729C379.729 2261.16 380.168 2262.39 381.047 2263.27C381.938 2264.15 383.145 2264.59 384.668 2264.59C386.086 2264.59 387.152 2264.23 387.867 2263.5C388.582 2262.78 388.939 2261.79 388.939 2260.53ZM402.791 2267.35C400.424 2267.35 398.607 2266.65 397.342 2265.24C396.076 2263.82 395.432 2261.75 395.408 2259.02V2256.72C395.408 2253.88 396.023 2251.66 397.254 2250.05C398.496 2248.44 400.225 2247.63 402.439 2247.63C404.666 2247.63 406.33 2248.34 407.432 2249.76C408.533 2251.17 409.096 2253.38 409.119 2256.38V2258.42H398.502V2258.86C398.502 2260.9 398.883 2262.38 399.645 2263.31C400.418 2264.23 401.525 2264.7 402.967 2264.7C403.881 2264.7 404.684 2264.53 405.375 2264.19C406.078 2263.84 406.734 2263.29 407.344 2262.54L408.961 2264.5C407.613 2266.4 405.557 2267.35 402.791 2267.35ZM402.439 2250.3C401.15 2250.3 400.195 2250.75 399.574 2251.64C398.953 2252.52 398.602 2253.89 398.52 2255.75H406.008V2255.33C405.926 2253.52 405.598 2252.23 405.023 2251.46C404.461 2250.69 403.6 2250.3 402.439 2250.3ZM420.721 2250.9C420.287 2250.82 419.818 2250.78 419.314 2250.78C417.721 2250.78 416.607 2251.65 415.975 2253.39V2267H412.863V2247.98H415.887L415.939 2249.91C416.771 2248.39 417.949 2247.63 419.473 2247.63C419.965 2247.63 420.375 2247.71 420.703 2247.88L420.721 2250.9ZM429.545 2262.27L433.148 2247.98H436.312L430.67 2267H428.35L422.637 2247.98H425.801L429.545 2262.27ZM442.904 2267H439.793V2247.98H442.904V2267ZM443.15 2242.94C443.15 2243.46 443.004 2243.9 442.711 2244.25C442.418 2244.61 441.973 2244.78 441.375 2244.78C440.789 2244.78 440.35 2244.61 440.057 2244.25C439.764 2243.9 439.617 2243.46 439.617 2242.94C439.617 2242.41 439.764 2241.96 440.057 2241.6C440.35 2241.24 440.789 2241.05 441.375 2241.05C441.961 2241.05 442.4 2241.24 442.693 2241.62C442.998 2241.98 443.15 2242.42 443.15 2242.94ZM454.418 2264.7C455.449 2264.7 456.275 2264.38 456.896 2263.75C457.518 2263.1 457.857 2262.19 457.916 2261.01H460.852C460.781 2262.83 460.131 2264.35 458.9 2265.56C457.682 2266.75 456.188 2267.35 454.418 2267.35C452.062 2267.35 450.264 2266.61 449.021 2265.14C447.791 2263.65 447.176 2261.44 447.176 2258.51V2256.42C447.176 2253.55 447.791 2251.37 449.021 2249.88C450.252 2248.38 452.045 2247.63 454.4 2247.63C456.346 2247.63 457.887 2248.24 459.023 2249.47C460.172 2250.71 460.781 2252.39 460.852 2254.52H457.916C457.846 2253.11 457.506 2252.06 456.896 2251.36C456.299 2250.65 455.467 2250.3 454.4 2250.3C453.018 2250.3 451.992 2250.76 451.324 2251.67C450.656 2252.57 450.311 2254.06 450.287 2256.14V2258.56C450.287 2260.8 450.615 2262.38 451.271 2263.31C451.939 2264.23 452.988 2264.7 454.418 2264.7ZM471.24 2267.35C468.873 2267.35 467.057 2266.65 465.791 2265.24C464.525 2263.82 463.881 2261.75 463.857 2259.02V2256.72C463.857 2253.88 464.473 2251.66 465.703 2250.05C466.945 2248.44 468.674 2247.63 470.889 2247.63C473.115 2247.63 474.779 2248.34 475.881 2249.76C476.982 2251.17 477.545 2253.38 477.568 2256.38V2258.42H466.951V2258.86C466.951 2260.9 467.332 2262.38 468.094 2263.31C468.867 2264.23 469.975 2264.7 471.416 2264.7C472.33 2264.7 473.133 2264.53 473.824 2264.19C474.527 2263.84 475.184 2263.29 475.793 2262.54L477.41 2264.5C476.062 2266.4 474.006 2267.35 471.24 2267.35ZM470.889 2250.3C469.6 2250.3 468.645 2250.75 468.023 2251.64C467.402 2252.52 467.051 2253.89 466.969 2255.75H474.457V2255.33C474.375 2253.52 474.047 2252.23 473.473 2251.46C472.91 2250.69 472.049 2250.3 470.889 2250.3ZM490.014 2267V2241.41H496.113C499.102 2241.41 501.422 2242.34 503.074 2244.22C504.727 2246.08 505.553 2248.71 505.553 2252.09V2256.38C505.553 2259.77 504.715 2262.39 503.039 2264.24C501.363 2266.08 498.932 2267 495.744 2267H490.014ZM493.23 2244.18V2264.24H495.814C498.076 2264.24 499.729 2263.6 500.771 2262.31C501.814 2261.01 502.348 2259.08 502.371 2256.54V2252.01C502.371 2249.31 501.85 2247.34 500.807 2246.08C499.775 2244.82 498.211 2244.18 496.113 2244.18H493.23ZM516.943 2267.35C514.576 2267.35 512.76 2266.65 511.494 2265.24C510.229 2263.82 509.584 2261.75 509.561 2259.02V2256.72C509.561 2253.88 510.176 2251.66 511.406 2250.05C512.648 2248.44 514.377 2247.63 516.592 2247.63C518.818 2247.63 520.482 2248.34 521.584 2249.76C522.686 2251.17 523.248 2253.38 523.271 2256.38V2258.42H512.654V2258.86C512.654 2260.9 513.035 2262.38 513.797 2263.31C514.57 2264.23 515.678 2264.7 517.119 2264.7C518.033 2264.7 518.836 2264.53 519.527 2264.19C520.23 2263.84 520.887 2263.29 521.496 2262.54L523.113 2264.5C521.766 2266.4 519.709 2267.35 516.943 2267.35ZM516.592 2250.3C515.303 2250.3 514.348 2250.75 513.727 2251.64C513.105 2252.52 512.754 2253.89 512.672 2255.75H520.16V2255.33C520.078 2253.52 519.75 2252.23 519.176 2251.46C518.613 2250.69 517.752 2250.3 516.592 2250.3ZM532.166 2262.27L535.77 2247.98H538.934L533.291 2267H530.971L525.258 2247.98H528.422L532.166 2262.27ZM545.525 2267H542.414V2247.98H545.525V2267ZM545.771 2242.94C545.771 2243.46 545.625 2243.9 545.332 2244.25C545.039 2244.61 544.594 2244.78 543.996 2244.78C543.41 2244.78 542.971 2244.61 542.678 2244.25C542.385 2243.9 542.238 2243.46 542.238 2242.94C542.238 2242.41 542.385 2241.96 542.678 2241.6C542.971 2241.24 543.41 2241.05 543.996 2241.05C544.582 2241.05 545.021 2241.24 545.314 2241.62C545.619 2241.98 545.771 2242.42 545.771 2242.94ZM557.039 2264.7C558.07 2264.7 558.896 2264.38 559.518 2263.75C560.139 2263.1 560.479 2262.19 560.537 2261.01H563.473C563.402 2262.83 562.752 2264.35 561.521 2265.56C560.303 2266.75 558.809 2267.35 557.039 2267.35C554.684 2267.35 552.885 2266.61 551.643 2265.14C550.412 2263.65 549.797 2261.44 549.797 2258.51V2256.42C549.797 2253.55 550.412 2251.37 551.643 2249.88C552.873 2248.38 554.666 2247.63 557.021 2247.63C558.967 2247.63 560.508 2248.24 561.645 2249.47C562.793 2250.71 563.402 2252.39 563.473 2254.52H560.537C560.467 2253.11 560.127 2252.06 559.518 2251.36C558.92 2250.65 558.088 2250.3 557.021 2250.3C555.639 2250.3 554.613 2250.76 553.945 2251.67C553.277 2252.57 552.932 2254.06 552.908 2256.14V2258.56C552.908 2260.8 553.236 2262.38 553.893 2263.31C554.561 2264.23 555.609 2264.7 557.039 2264.7ZM573.861 2267.35C571.494 2267.35 569.678 2266.65 568.412 2265.24C567.146 2263.82 566.502 2261.75 566.479 2259.02V2256.72C566.479 2253.88 567.094 2251.66 568.324 2250.05C569.566 2248.44 571.295 2247.63 573.51 2247.63C575.736 2247.63 577.4 2248.34 578.502 2249.76C579.604 2251.17 580.166 2253.38 580.189 2256.38V2258.42H569.572V2258.86C569.572 2260.9 569.953 2262.38 570.715 2263.31C571.488 2264.23 572.596 2264.7 574.037 2264.7C574.951 2264.7 575.754 2264.53 576.445 2264.19C577.148 2263.84 577.805 2263.29 578.414 2262.54L580.031 2264.5C578.684 2266.4 576.627 2267.35 573.861 2267.35ZM573.51 2250.3C572.221 2250.3 571.266 2250.75 570.645 2251.64C570.023 2252.52 569.672 2253.89 569.59 2255.75H577.078V2255.33C576.996 2253.52 576.668 2252.23 576.094 2251.46C575.531 2250.69 574.67 2250.3 573.51 2250.3ZM605.572 2267H602.479V2250.67H595.605V2267H592.477V2247.98H605.572V2267ZM624.293 2258.4C624.293 2261.42 623.748 2263.66 622.658 2265.14C621.58 2266.61 620.051 2267.35 618.07 2267.35C616.16 2267.35 614.689 2266.63 613.658 2265.19V2274.31H610.564V2247.98H613.377L613.535 2250.09C614.578 2248.45 616.072 2247.63 618.018 2247.63C620.104 2247.63 621.662 2248.36 622.693 2249.81C623.725 2251.26 624.258 2253.44 624.293 2256.33V2258.4ZM621.199 2256.63C621.199 2254.5 620.871 2252.93 620.215 2251.92C619.559 2250.9 618.504 2250.39 617.051 2250.39C615.562 2250.39 614.432 2251.13 613.658 2252.62V2262.52C614.42 2263.97 615.562 2264.7 617.086 2264.7C618.492 2264.7 619.523 2264.19 620.18 2263.19C620.848 2262.17 621.188 2260.61 621.199 2258.53V2256.63ZM635.104 2267.35C632.736 2267.35 630.92 2266.65 629.654 2265.24C628.389 2263.82 627.744 2261.75 627.721 2259.02V2256.72C627.721 2253.88 628.336 2251.66 629.566 2250.05C630.809 2248.44 632.537 2247.63 634.752 2247.63C636.979 2247.63 638.643 2248.34 639.744 2249.76C640.846 2251.17 641.408 2253.38 641.432 2256.38V2258.42H630.814V2258.86C630.814 2260.9 631.195 2262.38 631.957 2263.31C632.73 2264.23 633.838 2264.7 635.279 2264.7C636.193 2264.7 636.996 2264.53 637.688 2264.19C638.391 2263.84 639.047 2263.29 639.656 2262.54L641.273 2264.5C639.926 2266.4 637.869 2267.35 635.104 2267.35ZM634.752 2250.3C633.463 2250.3 632.508 2250.75 631.887 2251.64C631.266 2252.52 630.914 2253.89 630.832 2255.75H638.32V2255.33C638.238 2253.52 637.91 2252.23 637.336 2251.46C636.773 2250.69 635.912 2250.3 634.752 2250.3ZM645.141 2264.35L646.072 2263.01C647.08 2261.46 647.66 2259.18 647.812 2256.17L648.076 2247.98H658.693V2264.35H660.908V2272.59H657.797V2267H646.986V2272.59H643.857L643.875 2264.35H645.141ZM648.604 2264.35H655.6V2250.99H651.1L650.941 2255.63C650.777 2259.33 649.998 2262.24 648.604 2264.35ZM677.889 2247.98V2267H674.777V2250.67H669.768L669.469 2257.12C669.305 2260.7 668.824 2263.23 668.027 2264.73C667.23 2266.22 665.953 2266.98 664.195 2267H663.158V2264.13L663.949 2264.06C664.816 2263.95 665.426 2263.37 665.777 2262.32C666.141 2261.27 666.381 2259.2 666.498 2256.12L666.797 2247.98H677.889ZM692.619 2267C692.432 2266.59 692.297 2265.9 692.215 2264.93C691.113 2266.54 689.707 2267.35 687.996 2267.35C686.273 2267.35 684.926 2266.87 683.953 2265.91C682.992 2264.94 682.512 2263.57 682.512 2261.81C682.512 2259.88 683.168 2258.35 684.48 2257.21C685.793 2256.07 687.592 2255.49 689.877 2255.47H692.162V2253.45C692.162 2252.31 691.91 2251.5 691.406 2251.02C690.902 2250.54 690.135 2250.3 689.104 2250.3C688.166 2250.3 687.404 2250.58 686.818 2251.14C686.232 2251.7 685.939 2252.4 685.939 2253.25H682.828C682.828 2252.28 683.115 2251.36 683.689 2250.48C684.264 2249.59 685.037 2248.89 686.01 2248.38C686.982 2247.88 688.066 2247.63 689.262 2247.63C691.207 2247.63 692.684 2248.12 693.691 2249.09C694.711 2250.05 695.232 2251.46 695.256 2253.31V2262.9C695.268 2264.37 695.467 2265.64 695.854 2266.72V2267H692.619ZM688.471 2264.52C689.232 2264.52 689.959 2264.31 690.65 2263.89C691.342 2263.47 691.846 2262.94 692.162 2262.31V2257.77H690.404C688.928 2257.79 687.762 2258.13 686.906 2258.77C686.051 2259.41 685.623 2260.3 685.623 2261.45C685.623 2262.52 685.84 2263.31 686.273 2263.8C686.707 2264.28 687.439 2264.52 688.471 2264.52ZM710.549 2250.67H703.465V2267H700.336V2247.98H710.549V2250.67ZM723.24 2267C723.053 2266.59 722.918 2265.9 722.836 2264.93C721.734 2266.54 720.328 2267.35 718.617 2267.35C716.895 2267.35 715.547 2266.87 714.574 2265.91C713.613 2264.94 713.133 2263.57 713.133 2261.81C713.133 2259.88 713.789 2258.35 715.102 2257.21C716.414 2256.07 718.213 2255.49 720.498 2255.47H722.783V2253.45C722.783 2252.31 722.531 2251.5 722.027 2251.02C721.523 2250.54 720.756 2250.3 719.725 2250.3C718.787 2250.3 718.025 2250.58 717.439 2251.14C716.854 2251.7 716.561 2252.4 716.561 2253.25H713.449C713.449 2252.28 713.736 2251.36 714.311 2250.48C714.885 2249.59 715.658 2248.89 716.631 2248.38C717.604 2247.88 718.688 2247.63 719.883 2247.63C721.828 2247.63 723.305 2248.12 724.312 2249.09C725.332 2250.05 725.854 2251.46 725.877 2253.31V2262.9C725.889 2264.37 726.088 2265.64 726.475 2266.72V2267H723.24ZM719.092 2264.52C719.854 2264.52 720.58 2264.31 721.271 2263.89C721.963 2263.47 722.467 2262.94 722.783 2262.31V2257.77H721.025C719.549 2257.79 718.383 2258.13 717.527 2258.77C716.672 2259.41 716.244 2260.3 716.244 2261.45C716.244 2262.52 716.461 2263.31 716.895 2263.8C717.328 2264.28 718.061 2264.52 719.092 2264.52ZM737.514 2267.35C735.146 2267.35 733.33 2266.65 732.064 2265.24C730.799 2263.82 730.154 2261.75 730.131 2259.02V2256.72C730.131 2253.88 730.746 2251.66 731.977 2250.05C733.219 2248.44 734.947 2247.63 737.162 2247.63C739.389 2247.63 741.053 2248.34 742.154 2249.76C743.256 2251.17 743.818 2253.38 743.842 2256.38V2258.42H733.225V2258.86C733.225 2260.9 733.605 2262.38 734.367 2263.31C735.141 2264.23 736.248 2264.7 737.689 2264.7C738.604 2264.7 739.406 2264.53 740.098 2264.19C740.801 2263.84 741.457 2263.29 742.066 2262.54L743.684 2264.5C742.336 2266.4 740.279 2267.35 737.514 2267.35ZM737.162 2250.3C735.873 2250.3 734.918 2250.75 734.297 2251.64C733.676 2252.52 733.324 2253.89 733.242 2255.75H740.73V2255.33C740.648 2253.52 740.32 2252.23 739.746 2251.46C739.184 2250.69 738.322 2250.3 737.162 2250.3ZM759.398 2250.62H754.213V2267H751.119V2250.62H746.004V2247.98H759.398V2250.62ZM777.539 2264.7C778.57 2264.7 779.396 2264.38 780.018 2263.75C780.639 2263.1 780.979 2262.19 781.037 2261.01H783.973C783.902 2262.83 783.252 2264.35 782.021 2265.56C780.803 2266.75 779.309 2267.35 777.539 2267.35C775.184 2267.35 773.385 2266.61 772.143 2265.14C770.912 2263.65 770.297 2261.44 770.297 2258.51V2256.42C770.297 2253.55 770.912 2251.37 772.143 2249.88C773.373 2248.38 775.166 2247.63 777.521 2247.63C779.467 2247.63 781.008 2248.24 782.145 2249.47C783.293 2250.71 783.902 2252.39 783.973 2254.52H781.037C780.967 2253.11 780.627 2252.06 780.018 2251.36C779.42 2250.65 778.588 2250.3 777.521 2250.3C776.139 2250.3 775.113 2250.76 774.445 2251.67C773.777 2252.57 773.432 2254.06 773.408 2256.14V2258.56C773.408 2260.8 773.736 2262.38 774.393 2263.31C775.061 2264.23 776.109 2264.7 777.539 2264.7ZM800.971 2247.98V2267H797.859V2250.67H792.85L792.551 2257.12C792.387 2260.7 791.906 2263.23 791.109 2264.73C790.312 2266.22 789.035 2266.98 787.277 2267H786.24V2264.13L787.031 2264.06C787.898 2263.95 788.508 2263.37 788.859 2262.32C789.223 2261.27 789.463 2259.2 789.58 2256.12L789.879 2247.98H800.971ZM812.713 2267.35C810.346 2267.35 808.529 2266.65 807.264 2265.24C805.998 2263.82 805.354 2261.75 805.33 2259.02V2256.72C805.33 2253.88 805.945 2251.66 807.176 2250.05C808.418 2248.44 810.146 2247.63 812.361 2247.63C814.588 2247.63 816.252 2248.34 817.354 2249.76C818.455 2251.17 819.018 2253.38 819.041 2256.38V2258.42H808.424V2258.86C808.424 2260.9 808.805 2262.38 809.566 2263.31C810.34 2264.23 811.447 2264.7 812.889 2264.7C813.803 2264.7 814.605 2264.53 815.297 2264.19C816 2263.84 816.656 2263.29 817.266 2262.54L818.883 2264.5C817.535 2266.4 815.479 2267.35 812.713 2267.35ZM812.361 2250.3C811.072 2250.3 810.117 2250.75 809.496 2251.64C808.875 2252.52 808.523 2253.89 808.441 2255.75H815.93V2255.33C815.848 2253.52 815.52 2252.23 814.945 2251.46C814.383 2250.69 813.521 2250.3 812.361 2250.3ZM822.75 2264.35L823.682 2263.01C824.689 2261.46 825.27 2259.18 825.422 2256.17L825.686 2247.98H836.303V2264.35H838.518V2272.59H835.406V2267H824.596V2272.59H821.467L821.484 2264.35H822.75ZM826.213 2264.35H833.209V2250.99H828.709L828.551 2255.63C828.387 2259.33 827.607 2262.24 826.213 2264.35ZM847.289 2261.83L850.752 2247.98H854.057L847.834 2269.69C847.365 2271.32 846.703 2272.55 845.848 2273.4C844.992 2274.25 844.02 2274.68 842.93 2274.68C842.508 2274.68 841.969 2274.59 841.312 2274.4V2271.76L841.998 2271.83C842.9 2271.83 843.604 2271.62 844.107 2271.18C844.623 2270.76 845.039 2270.02 845.355 2268.97L845.971 2266.84L840.381 2247.98H843.773L847.289 2261.83ZM860.473 2256.05H864.023C864.246 2253.47 865.014 2251.43 866.326 2249.91C867.65 2248.39 869.303 2247.63 871.283 2247.63C873.393 2247.63 875.115 2248.46 876.451 2250.12C877.787 2251.78 878.514 2253.95 878.631 2256.63L878.648 2257.7C878.648 2260.55 877.975 2262.87 876.627 2264.66C875.279 2266.46 873.51 2267.35 871.318 2267.35C869.232 2267.35 867.533 2266.55 866.221 2264.96C864.908 2263.36 864.17 2261.28 864.006 2258.72H860.473V2267H857.379V2247.98H860.473V2256.05ZM867.082 2257.7C867.082 2259.82 867.463 2261.52 868.225 2262.8C868.986 2264.06 870.018 2264.7 871.318 2264.7C872.596 2264.7 873.615 2264.06 874.377 2262.8C875.139 2261.53 875.52 2259.71 875.52 2257.31C875.52 2255.17 875.133 2253.46 874.359 2252.2C873.586 2250.93 872.561 2250.3 871.283 2250.3C870.018 2250.3 868.998 2250.93 868.225 2252.2C867.463 2253.46 867.082 2255.3 867.082 2257.7ZM885.732 2247.98V2264.35H891.094V2247.98H894.188V2264.35H899.566V2247.98H902.678V2264.35H905.051L904.734 2272.64H901.975V2267H882.604V2247.98H885.732ZM918.814 2247.98H921.908V2267H918.814V2253.13L911.924 2267H908.812V2247.98H911.924V2261.87L918.814 2247.98ZM933.686 2267.35C931.318 2267.35 929.502 2266.65 928.236 2265.24C926.971 2263.82 926.326 2261.75 926.303 2259.02V2256.72C926.303 2253.88 926.918 2251.66 928.148 2250.05C929.391 2248.44 931.119 2247.63 933.334 2247.63C935.561 2247.63 937.225 2248.34 938.326 2249.76C939.428 2251.17 939.99 2253.38 940.014 2256.38V2258.42H929.396V2258.86C929.396 2260.9 929.777 2262.38 930.539 2263.31C931.312 2264.23 932.42 2264.7 933.861 2264.7C934.775 2264.7 935.578 2264.53 936.27 2264.19C936.973 2263.84 937.629 2263.29 938.238 2262.54L939.855 2264.5C938.508 2266.4 936.451 2267.35 933.686 2267.35ZM933.334 2250.3C932.045 2250.3 931.09 2250.75 930.469 2251.64C929.848 2252.52 929.496 2253.89 929.414 2255.75H936.902V2255.33C936.82 2253.52 936.492 2252.23 935.918 2251.46C935.355 2250.69 934.494 2250.3 933.334 2250.3ZM964.043 2250.62H958.857V2267H955.764V2250.62H950.648V2247.98H964.043V2250.62ZM965.924 2256.61C965.924 2253.85 966.592 2251.66 967.928 2250.05C969.275 2248.44 971.051 2247.63 973.254 2247.63C975.457 2247.63 977.227 2248.41 978.562 2249.98C979.91 2251.55 980.602 2253.69 980.637 2256.4V2258.4C980.637 2261.16 979.969 2263.34 978.633 2264.94C977.297 2266.55 975.516 2267.35 973.289 2267.35C971.086 2267.35 969.316 2266.57 967.98 2265.01C966.656 2263.46 965.971 2261.35 965.924 2258.69V2256.61ZM969.035 2258.4C969.035 2260.36 969.416 2261.9 970.178 2263.03C970.951 2264.14 971.988 2264.7 973.289 2264.7C976.031 2264.7 977.443 2262.72 977.525 2258.76V2256.61C977.525 2254.67 977.139 2253.13 976.365 2252.01C975.592 2250.87 974.555 2250.3 973.254 2250.3C971.977 2250.3 970.951 2250.87 970.178 2252.01C969.416 2253.13 969.035 2254.66 969.035 2256.59V2258.4ZM984.926 2267V2247.98H991.307C993.486 2247.98 995.15 2248.43 996.299 2249.32C997.447 2250.21 998.021 2251.5 998.021 2253.2C998.021 2254.08 997.793 2254.87 997.336 2255.57C996.879 2256.28 996.211 2256.82 995.332 2257.19C996.305 2257.45 997.084 2257.97 997.67 2258.76C998.268 2259.54 998.566 2260.49 998.566 2261.6C998.566 2263.36 998.016 2264.7 996.914 2265.63C995.824 2266.54 994.277 2267 992.273 2267H984.926ZM988.02 2258.65V2264.38H992.309C994.406 2264.38 995.455 2263.42 995.455 2261.5C995.455 2259.6 994.395 2258.65 992.273 2258.65H988.02ZM988.02 2256.05H991.271C993.697 2256.05 994.91 2255.16 994.91 2253.38C994.91 2251.58 993.768 2250.66 991.482 2250.62H988.02V2256.05ZM1012.58 2267C1012.39 2266.59 1012.25 2265.9 1012.17 2264.93C1011.07 2266.54 1009.66 2267.35 1007.95 2267.35C1006.23 2267.35 1004.88 2266.87 1003.91 2265.91C1002.95 2264.94 1002.47 2263.57 1002.47 2261.81C1002.47 2259.88 1003.12 2258.35 1004.44 2257.21C1005.75 2256.07 1007.55 2255.49 1009.83 2255.47H1012.12V2253.45C1012.12 2252.31 1011.87 2251.5 1011.36 2251.02C1010.86 2250.54 1010.09 2250.3 1009.06 2250.3C1008.12 2250.3 1007.36 2250.58 1006.78 2251.14C1006.19 2251.7 1005.9 2252.4 1005.9 2253.25H1002.79C1002.79 2252.28 1003.07 2251.36 1003.65 2250.48C1004.22 2249.59 1004.99 2248.89 1005.97 2248.38C1006.94 2247.88 1008.02 2247.63 1009.22 2247.63C1011.16 2247.63 1012.64 2248.12 1013.65 2249.09C1014.67 2250.05 1015.19 2251.46 1015.21 2253.31V2262.9C1015.22 2264.37 1015.42 2265.64 1015.81 2266.72V2267H1012.58ZM1008.43 2264.52C1009.19 2264.52 1009.92 2264.31 1010.61 2263.89C1011.3 2263.47 1011.8 2262.94 1012.12 2262.31V2257.77H1010.36C1008.88 2257.79 1007.72 2258.13 1006.86 2258.77C1006.01 2259.41 1005.58 2260.3 1005.58 2261.45C1005.58 2262.52 1005.8 2263.31 1006.23 2263.8C1006.66 2264.28 1007.4 2264.52 1008.43 2264.52ZM1033.79 2258.4C1033.79 2261.42 1033.25 2263.66 1032.16 2265.14C1031.08 2266.61 1029.55 2267.35 1027.57 2267.35C1025.66 2267.35 1024.19 2266.63 1023.16 2265.19V2274.31H1020.06V2247.98H1022.88L1023.04 2250.09C1024.08 2248.45 1025.57 2247.63 1027.52 2247.63C1029.6 2247.63 1031.16 2248.36 1032.19 2249.81C1033.22 2251.26 1033.76 2253.44 1033.79 2256.33V2258.4ZM1030.7 2256.63C1030.7 2254.5 1030.37 2252.93 1029.71 2251.92C1029.06 2250.9 1028 2250.39 1026.55 2250.39C1025.06 2250.39 1023.93 2251.13 1023.16 2252.62V2262.52C1023.92 2263.97 1025.06 2264.7 1026.59 2264.7C1027.99 2264.7 1029.02 2264.19 1029.68 2263.19C1030.35 2262.17 1030.69 2260.61 1030.7 2258.53V2256.63ZM1041.18 2254.54H1045.1C1046.91 2254.55 1048.36 2255.11 1049.44 2256.21C1050.52 2257.31 1051.05 2258.81 1051.05 2260.71C1051.05 2262.61 1050.51 2264.13 1049.42 2265.28C1048.33 2266.41 1046.89 2266.99 1045.1 2267H1038.08V2247.98H1041.18V2254.54ZM1056.86 2267H1053.74V2247.98H1056.86V2267ZM1041.18 2257.19V2264.35H1045.04C1045.96 2264.35 1046.67 2264.04 1047.17 2263.41C1047.69 2262.79 1047.94 2261.93 1047.94 2260.83C1047.94 2259.75 1047.69 2258.88 1047.19 2258.21C1046.68 2257.54 1045.99 2257.2 1045.11 2257.19H1041.18ZM1080.81 2247.98H1083.91V2267H1080.81V2253.13L1073.92 2267H1070.81V2247.98H1073.92V2261.87L1080.81 2247.98ZM1102.35 2261.83L1105.81 2247.98H1109.12L1102.89 2269.69C1102.42 2271.32 1101.76 2272.55 1100.91 2273.4C1100.05 2274.25 1099.08 2274.68 1097.99 2274.68C1097.57 2274.68 1097.03 2274.59 1096.37 2274.4V2271.76L1097.06 2271.83C1097.96 2271.83 1098.66 2271.62 1099.17 2271.18C1099.68 2270.76 1100.1 2270.02 1100.41 2268.97L1101.03 2266.84L1095.44 2247.98H1098.83L1102.35 2261.83ZM1118.52 2264.7C1119.55 2264.7 1120.38 2264.38 1121 2263.75C1121.62 2263.1 1121.96 2262.19 1122.02 2261.01H1124.95C1124.88 2262.83 1124.23 2264.35 1123 2265.56C1121.78 2266.75 1120.29 2267.35 1118.52 2267.35C1116.16 2267.35 1114.37 2266.61 1113.12 2265.14C1111.89 2263.65 1111.28 2261.44 1111.28 2258.51V2256.42C1111.28 2253.55 1111.89 2251.37 1113.12 2249.88C1114.35 2248.38 1116.15 2247.63 1118.5 2247.63C1120.45 2247.63 1121.99 2248.24 1123.12 2249.47C1124.27 2250.71 1124.88 2252.39 1124.95 2254.52H1122.02C1121.95 2253.11 1121.61 2252.06 1121 2251.36C1120.4 2250.65 1119.57 2250.3 1118.5 2250.3C1117.12 2250.3 1116.09 2250.76 1115.43 2251.67C1114.76 2252.57 1114.41 2254.06 1114.39 2256.14V2258.56C1114.39 2260.8 1114.72 2262.38 1115.37 2263.31C1116.04 2264.23 1117.09 2264.7 1118.52 2264.7ZM1141.95 2247.98V2267H1138.84V2250.67H1133.83L1133.53 2257.12C1133.37 2260.7 1132.89 2263.23 1132.09 2264.73C1131.29 2266.22 1130.02 2266.98 1128.26 2267H1127.22V2264.13L1128.01 2264.06C1128.88 2263.95 1129.49 2263.37 1129.84 2262.32C1130.2 2261.27 1130.44 2259.2 1130.56 2256.12L1130.86 2247.98H1141.95ZM1152.09 2261.83L1155.56 2247.98H1158.86L1152.64 2269.69C1152.17 2271.32 1151.51 2272.55 1150.65 2273.4C1149.8 2274.25 1148.82 2274.68 1147.73 2274.68C1147.31 2274.68 1146.77 2274.59 1146.12 2274.4V2271.76L1146.8 2271.83C1147.71 2271.83 1148.41 2271.62 1148.91 2271.18C1149.43 2270.76 1149.84 2270.02 1150.16 2268.97L1150.78 2266.84L1145.19 2247.98H1148.58L1152.09 2261.83ZM1172.36 2250.67H1165.28V2267H1162.15V2247.98H1172.36V2250.67ZM1185.54 2247.98H1188.64V2267H1185.54V2253.13L1178.65 2267H1175.54V2247.98H1178.65V2261.87L1185.54 2247.98Z" fill="white"/>
</g>
<defs>
<clipPath id="clip0">
<rect width="1920" height="4066" fill="white"/>
</clipPath>
</defs>
</svg>
